<svg viewBox="0 0 16 15" fill="currentColor" xmlns="http://www.w3.org/2000/svg">
<path fill-rule="evenodd" clip-rule="evenodd" d="M0.309191 8.07107C-0.103064 7.68054 -0.103064 7.04738 0.309191 6.65685L7.02727 0.292893C7.43952 -0.0976311 8.10792 -0.0976311 8.52018 0.292893C8.93243 0.683418 8.93243 1.31658 8.52018 1.70711L2.54855 7.36396L8.52018 13.0208C8.93243 13.4113 8.93243 14.0445 8.52018 14.435C8.10792 14.8256 7.43952 14.8256 7.02727 14.435L0.309191 8.07107ZM13.3611 14.435L6.64306 8.07107C6.2308 7.68054 6.2308 7.04738 6.64306 6.65685L13.3611 0.292893C13.7734 -0.0976311 14.4418 -0.0976311 14.854 0.292893C15.2663 0.683418 15.2663 1.31658 14.854 1.70711L8.88242 7.36396L14.854 13.0208C15.2663 13.4113 15.2663 14.0445 14.854 14.435C14.4418 14.8256 13.7734 14.8256 13.3611 14.435Z" fill="currentColor"/>
</svg>
