<svg viewBox="0 0 16 15" fill="none" xmlns="http://www.w3.org/2000/svg">
<path fill-rule="evenodd" clip-rule="evenodd" d="M14.8541 6.65684C15.2664 7.04736 15.2664 7.68053 14.8541 8.07105L8.13606 14.435C7.72381 14.8255 7.05541 14.8255 6.64315 14.435C6.2309 14.0445 6.2309 13.4113 6.64315 13.0208L12.6148 7.36394L6.64316 1.70709C6.2309 1.31657 6.2309 0.6834 6.64316 0.292876C7.05541 -0.0976493 7.72381 -0.0976492 8.13606 0.292876L14.8541 6.65684ZM1.8022 0.292875L8.52027 6.65684C8.93253 7.04736 8.93253 7.68053 8.52027 8.07105L1.8022 14.435C1.38994 14.8255 0.721544 14.8255 0.30929 14.435C-0.102964 14.0445 -0.102964 13.4113 0.30929 13.0208L6.28091 7.36394L0.309291 1.70709C-0.102963 1.31657 -0.102963 0.6834 0.309291 0.292875C0.721546 -0.0976498 1.38994 -0.0976498 1.8022 0.292875Z" fill="currentColor"/>
</svg>
