<svg viewBox="0 0 53 29" fill="none" xmlns="http://www.w3.org/2000/svg">
<path d="M3.51625 21.3502V6.77977C3.51741 5.91459 3.86162 5.08517 4.4734 4.4734C5.08517 3.86162 5.91459 3.51741 6.77977 3.51625H21.8821L24.5632 0H6.77977C4.98229 0.00203582 3.25901 0.716985 1.988 1.988C0.716985 3.25901 0.00203582 4.98229 0 6.77977V21.3502C0.00203582 23.1477 0.716985 24.871 1.988 26.142C3.25901 27.413 4.98229 28.128 6.77977 28.13H17.4219C17.3876 27.8621 17.3972 27.5904 17.4505 27.3257L17.467 27.2432L17.49 27.163L18.2043 24.6137H6.77977C5.91459 24.6126 5.08517 24.2684 4.4734 23.6566C3.86162 23.0448 3.51741 22.2154 3.51625 21.3502ZM40.6896 0H29.8508C29.8831 0.263616 29.8731 0.530701 29.8211 0.791156L29.8046 0.87247L29.7815 0.952684L29.0629 3.51625H40.6896C41.5548 3.51741 42.3842 3.86162 42.996 4.4734C43.6077 5.08517 43.952 5.91459 43.9531 6.77977V21.3502C43.952 22.2154 43.6077 23.0448 42.996 23.6566C42.3842 24.2684 41.5548 24.6126 40.6896 24.6137H25.3829L22.6996 28.13H40.6896C42.4871 28.128 44.2104 27.413 45.4814 26.142C46.7524 24.871 47.4673 23.1477 47.4694 21.3502V6.77977C47.4673 4.98229 46.7524 3.25901 45.4814 1.988C44.2104 0.716985 42.4871 0.00203582 40.6896 0Z" fill="currentColor"/>
<path d="M16.1141 18.258C15.6266 18.2581 15.1483 18.1251 14.7308 17.8734C14.3133 17.6217 13.9725 17.2608 13.745 16.8296C13.5098 16.3872 13.3999 15.8889 13.4274 15.3887C13.4549 14.8884 13.6187 14.4052 13.9011 13.9913L13.9351 13.9407L13.9714 13.8924L19.9567 6.04346H8.09707C7.51422 6.04346 6.95523 6.275 6.54309 6.68714C6.13095 7.09928 5.89941 7.65826 5.89941 8.24111V19.8887C5.89941 20.4715 6.13095 21.0305 6.54309 21.4427C6.95523 21.8548 7.51422 22.0863 8.09707 22.0863H18.9117L19.9864 18.2558L16.1141 18.258Z" fill="currentColor"/>
<path d="M28.577 16.8L31.5516 12.9002C31.5935 12.8366 31.6222 12.7652 31.6362 12.6903C31.6407 12.6664 31.6436 12.6422 31.645 12.6178C31.6482 12.5704 31.6452 12.5227 31.6362 12.4761C31.6234 12.4079 31.598 12.3427 31.5615 12.2838C31.5375 12.2454 31.5087 12.2103 31.4757 12.1794C31.4594 12.164 31.4418 12.15 31.423 12.1376C31.3857 12.1113 31.3446 12.0909 31.301 12.0772C31.2545 12.0624 31.2059 12.055 31.1571 12.0552H24.3861L25.7179 7.30719L26.0728 6.04354L26.7552 3.60853L26.8112 3.40635L27.6672 0.356004C27.6706 0.336035 27.6725 0.315827 27.6727 0.295569V0.277987C27.6727 0.272493 27.6727 0.249417 27.6672 0.236231C27.6617 0.223045 27.6672 0.226342 27.6672 0.220847C27.6628 0.203732 27.6565 0.187151 27.6485 0.1714C27.6399 0.156537 27.6304 0.142225 27.62 0.128546L27.6101 0.117559C27.6014 0.108573 27.5923 0.100131 27.5826 0.0922847L27.5716 0.0834939C27.558 0.073672 27.5437 0.064859 27.5288 0.0571231C27.5143 0.050379 27.4992 0.045221 27.4837 0.0417396H27.4189C27.4024 0.0401233 27.3859 0.0401233 27.3694 0.0417396C27.3534 0.0454029 27.338 0.0509345 27.3233 0.0582213L27.309 0.0659139L27.276 0.0889884L27.2639 0.0999773C27.2491 0.113442 27.2358 0.128557 27.2244 0.14503L25.2465 2.74156L23.8026 4.63374L22.7203 6.04354L15.7196 15.2242C15.7012 15.2522 15.685 15.2816 15.6713 15.3122C15.6537 15.3504 15.6408 15.3906 15.6328 15.4319C15.6234 15.4785 15.6204 15.5262 15.624 15.5737C15.6277 15.6538 15.6494 15.732 15.6874 15.8026C15.7255 15.8731 15.7789 15.9342 15.8438 15.9813C15.8628 15.994 15.8826 16.0054 15.9032 16.0154C15.9679 16.0467 16.0389 16.0629 16.1108 16.0627H22.8818L19.6051 27.7564C19.6035 27.7769 19.6035 27.7974 19.6051 27.8179V27.8344C19.6061 27.8485 19.6083 27.8624 19.6117 27.8762C19.6111 27.8813 19.6111 27.8864 19.6117 27.8915C19.6161 27.9087 19.6224 27.9252 19.6304 27.941C19.639 27.9555 19.6485 27.9694 19.6589 27.9827L19.6688 27.9937L19.6963 28.0201C19.7004 28.0224 19.7041 28.0254 19.7073 28.0289C19.7207 28.0388 19.735 28.0472 19.7501 28.0542C19.7648 28.0604 19.7798 28.0656 19.7952 28.0695H19.8095C19.8215 28.0706 19.8337 28.0706 19.8457 28.0695H19.86C19.8767 28.069 19.8933 28.0668 19.9095 28.063C19.9251 28.0587 19.9402 28.0528 19.9545 28.0454L19.9688 28.0377L20.0018 28.0146L20.0139 28.0047C20.0287 27.9912 20.042 27.9761 20.0534 27.9597L22.6159 24.6137L24.5421 22.0864L28.577 16.8Z" fill="currentColor"/>
<path d="M33.3498 14.1671L33.2993 14.233L27.3074 22.0863H39.3725C39.9554 22.0863 40.5143 21.8548 40.9265 21.4427C41.3386 21.0305 41.5702 20.4715 41.5702 19.8887V8.24111C41.5702 7.65826 41.3386 7.09928 40.9265 6.68714C40.5143 6.275 39.9554 6.04346 39.3725 6.04346H28.3557L27.2854 9.85969H31.1577C31.6406 9.8591 32.1147 9.98922 32.5297 10.2363C32.9446 10.4833 33.285 10.8381 33.5147 11.2629C33.7534 11.7013 33.8692 12.1961 33.8499 12.695C33.8305 13.1938 33.6767 13.6781 33.4048 14.0968L33.3498 14.1671ZM50.986 8.20485C50.5197 8.20485 50.0726 8.39008 49.7428 8.71979C49.4131 9.04951 49.2279 9.49669 49.2279 9.96298V18.1668C49.2279 18.6331 49.4131 19.0803 49.7428 19.41C50.0726 19.7397 50.5197 19.9249 50.986 19.9249C51.4523 19.9249 51.8995 19.7397 52.2292 19.41C52.5589 19.0803 52.7442 18.6331 52.7442 18.1668V9.96298C52.7442 9.49669 52.5589 9.04951 52.2292 8.71979C51.8995 8.39008 51.4523 8.20485 50.986 8.20485Z" fill="currentColor"/>
</svg>
