<svg viewBox="0 0 53 29" fill="none" xmlns="http://www.w3.org/2000/svg">
  <path fill-rule="evenodd" clip-rule="evenodd" d="M6.77977 3.51625C4.97738 3.51625 3.51625 4.97738 3.51625 6.77977V21.3502C3.51625 23.1526 4.97738 24.6137 6.77977 24.6137H40.6896C42.492 24.6137 43.9531 23.1526 43.9531 21.3502V6.77977C43.9531 4.97738 42.492 3.51625 40.6896 3.51625H6.77977ZM0 6.77977C0 3.03541 3.03541 0 6.77977 0H40.6896C44.434 0 47.4694 3.03541 47.4694 6.77977V21.3502C47.4694 25.0946 44.434 28.13 40.6896 28.13H6.77977C3.03541 28.13 0 25.0946 0 21.3502V6.77977Z" fill="currentColor"/>
  <path fill-rule="evenodd" clip-rule="evenodd" d="M5.89966 8.23379C5.89966 7.02006 6.88358 6.03613 8.09731 6.03613H24.1743C25.388 6.03613 26.3719 7.02006 26.3719 8.23379V19.8957C26.3719 21.1094 25.388 22.0933 24.1743 22.0933H8.09731C6.88358 22.0933 5.89966 21.1094 5.89966 19.8957V8.23379Z" fill="currentColor"/>
  <path fill-rule="evenodd" clip-rule="evenodd" d="M50.9857 8.20471C51.9566 8.20471 52.7438 8.99185 52.7438 9.96284V18.1667C52.7438 19.1377 51.9566 19.9248 50.9857 19.9248C50.0147 19.9248 49.2275 19.1377 49.2275 18.1667V9.96284C49.2275 8.99185 50.0147 8.20471 50.9857 8.20471Z" fill="currentColor"/>
</svg>
