<svg viewBox="0 0 39 53" fill="none" xmlns="http://www.w3.org/2000/svg">
<path d="M37.5681 50.7902H31.7784L26.7841 29.7968H35.3693C35.977 29.7968 36.4742 29.2996 36.4742 28.6918C36.4742 28.3272 36.2864 27.9846 35.977 27.7748L29.3475 23.3551C29.1707 23.2336 28.9498 23.1673 28.7398 23.1673H26.53V14.328H34.2754C34.8832 14.328 35.3804 13.8308 35.3804 13.223C35.3804 12.8584 35.1926 12.5049 34.8832 12.306L28.2537 7.8863C28.0769 7.76479 27.8559 7.6985 27.635 7.6985H24.9278L20.2872 0.472351C19.8783 -0.15745 18.8287 -0.15745 18.4309 0.472351L13.7571 7.6985H11.0501C10.8292 7.6985 10.6192 7.76479 10.4424 7.8863L3.81291 12.306C3.30461 12.6486 3.17202 13.3336 3.5035 13.8419C3.71347 14.1513 4.05592 14.3391 4.42054 14.3391H12.155V23.1784H9.94519C9.72424 23.1784 9.51427 23.2447 9.32647 23.3662L2.69698 27.7859C2.18868 28.1284 2.05609 28.8134 2.38757 29.3217C2.59754 29.6311 2.93999 29.8189 3.30461 29.8189H11.8235L6.82933 50.8123H1.13905C0.586624 50.8123 0.0894115 51.21 0.0120329 51.7515C-0.0874095 52.4144 0.442951 53 1.1059 53H37.535C38.0874 53 38.5846 52.6022 38.662 52.0608C38.7614 51.3758 38.2311 50.7902 37.5681 50.7902ZM28.6183 47.0003L20.7292 36.6472L24.8615 31.2331L28.6183 47.0003ZM22.5523 23.1673H16.0886L19.3259 20.2282L22.5523 23.1673ZM20.9722 18.7145L24.309 15.6981V21.753L20.9722 18.7145ZM22.2318 27.587H16.3647L18.1989 25.3772H20.464L22.2318 27.587ZM14.3649 21.731V15.7092L17.6796 18.7256L14.3649 21.731ZM23.171 29.7968L19.337 34.8463L15.4808 29.7968H23.171ZM28.3972 25.3772L31.712 27.587H25.0604L23.2925 25.3772H28.3972ZM27.2924 9.90829L30.6071 12.1181H24.7732L22.5634 9.90829H27.2924ZM19.337 3.11306L22.276 7.6985H16.3869L19.337 3.11306ZM21.6462 12.1182H17.0387L19.2485 9.9084H19.4363L21.6462 12.1182ZM22.5523 14.328L19.3259 17.245L16.1217 14.328H22.5523ZM8.06687 12.1182L11.3816 9.9084H16.1106L13.9008 12.1182H8.06687ZM6.96192 27.587L10.2767 25.3772H15.3262L13.492 27.587H6.96192ZM13.7682 31.1669L17.9448 36.6473L9.96725 47.1108L13.7682 31.1669ZM9.96725 50.7902L19.3369 38.4925L28.7065 50.7902H9.96725Z" fill="currentColor"/>
</svg>
