<svg viewBox="0 0 44 42" fill="none" xmlns="http://www.w3.org/2000/svg">
<path d="M6.66911 19.6745L7.53253 16.0975C5.66794 15.2517 4.19135 12.6677 4.19135 10.4786C4.19135 7.00676 7.00676 4.19127 10.4787 4.19127C13.2268 4.19127 15.5574 5.9584 16.4126 8.41536H18.8306C19.2237 7.77642 20.3493 6.91936 20.1612 6.46716C19.9235 5.89301 17.7923 6.33258 17.4503 5.82133C17.1062 5.30751 18.3244 3.50523 17.8885 3.06944C17.4521 2.63305 15.6499 3.85181 15.136 3.50712C14.6255 3.16569 15.0644 1.03314 14.4908 0.795525C13.926 0.561603 12.7294 2.37644 12.1156 2.25509C11.5207 2.13753 11.1081 0 10.4786 0C9.84915 0 9.43656 2.13753 8.8417 2.25509C8.22862 2.37644 7.03185 0.561603 6.46716 0.796127C5.89301 1.03383 6.33258 3.16509 5.82133 3.50712C5.30751 3.85113 3.50523 2.63305 3.06944 3.06884C2.63305 3.50523 3.85181 5.30751 3.50781 5.82133C3.16577 6.33198 1.03383 5.89301 0.795525 6.46655C0.561603 7.03134 2.37652 8.22862 2.25509 8.84179C2.13753 9.43665 0 9.84923 0 10.4786C0 11.1081 2.13753 11.5207 2.25518 12.1156C2.37652 12.7287 0.561603 13.9254 0.796213 14.4901C1.03392 15.0643 3.16509 14.6247 3.5072 15.1359C3.85121 15.6498 2.63313 17.4521 3.06892 17.8878C3.50531 18.3242 5.3076 17.1055 5.82142 17.4495C6.14145 17.664 6.61188 18.9607 6.66911 19.6745Z" fill="currentColor"/>
<path d="M5.68433 28.8931H44.0002L39.4925 10.2185H10.192L5.68433 28.8931ZM40.7289 26.3173H31.589L31.0494 20.5218H39.3295L40.7289 26.3173ZM37.4644 12.7943L38.8637 18.5899H30.8696L30.3307 12.7943H37.4644ZM21.282 12.7943H28.3906L28.9301 18.5899H20.7424L21.282 12.7943ZM20.5625 20.5218H29.1099L29.6488 26.3173H20.0236L20.5625 20.5218ZM12.2207 12.7943H19.342L18.8031 18.5899H10.8215L12.2207 12.7943ZM18.6232 20.5218L18.0836 26.3173H8.95632L10.3556 20.5218H18.6232Z" fill="currentColor"/>
<path d="M7.18738 32.799H42.4972L44.0002 29.7937H5.68433L7.18738 32.799Z" fill="currentColor"/>
<path d="M26.7869 34.0186H22.898L22.6892 37.4219L18.7651 39.3664V41.7976H30.9198V39.3664L26.9956 37.4219L26.7869 34.0186Z" fill="currentColor"/>
</svg>
