<svg width="140" height="140" viewBox="0 0 140 140" fill="none" xmlns="http://www.w3.org/2000/svg">
<g id="chart-block-batteries.component">
<g id="batt-box">
<text id="label" fill="#D4DCE3" xml:space="preserve" style="white-space: pre" font-family="Inter" font-size="12" font-weight="bold" letter-spacing="0em"><tspan x="52" y="57.8636">Batteries</tspan></text>
</g>
<g id="batt-out">
<text id="batt-out-value" fill="#D4DCE3" xml:space="preserve" style="white-space: pre" font-family="Inter" font-size="18" font-weight="bold" letter-spacing="0em"><tspan x="51" y="116.545">0 kW</tspan></text>
<path id="arrow" fill-rule="evenodd" clip-rule="evenodd" d="M22.3124 110.435C21.8959 110.044 21.8959 109.411 22.3124 109.021L29.1012 102.657C29.5178 102.266 30.1933 102.266 30.6098 102.657C31.0264 103.047 31.0264 103.68 30.6098 104.071L24.5754 109.728L30.6098 115.385C31.0264 115.775 31.0264 116.408 30.6098 116.799C30.1933 117.189 29.5178 117.189 29.1012 116.799L22.3124 110.435ZM35.5018 116.799L28.713 110.435C28.2964 110.044 28.2964 109.411 28.713 109.021L35.5018 102.657C35.9183 102.266 36.5938 102.266 37.0104 102.657C37.427 103.047 37.427 103.68 37.0104 104.071L30.9759 109.728L37.0104 115.385C37.427 115.775 37.427 116.408 37.0104 116.799C36.5938 117.189 35.9183 117.189 35.5018 116.799Z" fill="#D4DCE3"/>
<g id="batt-icon-default">
<path id="Vector (Stroke)" fill-rule="evenodd" clip-rule="evenodd" d="M58.7798 16.5162C56.9774 16.5162 55.5163 17.9774 55.5163 19.7798V34.3502C55.5163 36.1526 56.9774 37.6137 58.7798 37.6137H92.6896C94.492 37.6137 95.9531 36.1526 95.9531 34.3502V19.7798C95.9531 17.9774 94.492 16.5162 92.6896 16.5162H58.7798ZM52 19.7798C52 16.0354 55.0354 13 58.7798 13H92.6896C96.434 13 99.4694 16.0354 99.4694 19.7798V34.3502C99.4694 38.0946 96.434 41.13 92.6896 41.13H58.7798C55.0354 41.13 52 38.0946 52 34.3502V19.7798Z" fill="#D4DCE3"/>
<path id="Vector" d="M76.1742 20.7942H60.0972C59.8545 20.7942 59.6577 20.991 59.6577 21.2337V32.8956C59.6577 33.1383 59.8545 33.3351 60.0972 33.3351H76.1742C76.4169 33.3351 76.6137 33.1383 76.6137 32.8956V21.2337C76.6137 20.991 76.4169 20.7942 76.1742 20.7942Z" fill="#D4DCE3"/>
<path id="Vector (Stroke)_2" fill-rule="evenodd" clip-rule="evenodd" d="M61.4159 22.5524V31.5771H74.8557V22.5524H61.4159ZM57.8997 21.2338C57.8997 20.0201 58.8836 19.0361 60.0973 19.0361H76.1743C77.388 19.0361 78.3719 20.0201 78.3719 21.2338V32.8957C78.3719 34.1094 77.388 35.0933 76.1743 35.0933H60.0973C58.8836 35.0933 57.8997 34.1094 57.8997 32.8957V21.2338Z" fill="#D4DCE3"/>
<path id="Vector (Stroke)_3" fill-rule="evenodd" clip-rule="evenodd" d="M102.986 21.2048C103.957 21.2048 104.744 21.992 104.744 22.963V31.1668C104.744 32.1378 103.957 32.9249 102.986 32.9249C102.015 32.9249 101.228 32.1378 101.228 31.1668V22.963C101.228 21.992 102.015 21.2048 102.986 21.2048Z" fill="#D4DCE3"/>
</g>
</g>
<g id="batt-in">
<text id="batt-in-value" fill="#D4DCE3" xml:space="preserve" style="white-space: pre" font-family="Inter" font-size="18" font-weight="bold" letter-spacing="0em"><tspan x="51" y="89.5455">0 kW</tspan></text>
<path id="arrow_2" fill-rule="evenodd" clip-rule="evenodd" d="M37.0098 83.6568C37.4264 84.0474 37.4264 84.6805 37.0098 85.0711L30.221 91.435C29.8044 91.8255 29.129 91.8255 28.7124 91.435C28.2958 91.0445 28.2958 90.4113 28.7124 90.0208L34.7469 84.3639L28.7124 78.7071C28.2958 78.3166 28.2958 77.6834 28.7124 77.2929C29.129 76.9024 29.8044 76.9024 30.221 77.2929L37.0098 83.6568ZM23.8205 77.2929L30.6093 83.6568C31.0259 84.0474 31.0259 84.6805 30.6093 85.0711L23.8205 91.435C23.4039 91.8255 22.7285 91.8255 22.3119 91.435C21.8953 91.0445 21.8953 90.4113 22.3119 90.0208L28.3464 84.3639L22.3119 78.7071C21.8953 78.3166 21.8953 77.6834 22.3119 77.2929C22.7285 76.9024 23.4039 76.9024 23.8205 77.2929Z" fill="#D4DCE3"/>
<g id="batt-icon-charge">
<path id="Vector_2" d="M55.5162 34.3502V19.7798C55.5174 18.9146 55.8616 18.0852 56.4734 17.4734C57.0852 16.8616 57.9146 16.5174 58.7798 16.5162H73.8821L76.5632 13H58.7798C56.9823 13.002 55.259 13.717 53.988 14.988C52.717 16.259 52.002 17.9823 52 19.7798V34.3502C52.002 36.1477 52.717 37.871 53.988 39.142C55.259 40.413 56.9823 41.128 58.7798 41.13H69.4219C69.3876 40.8621 69.3972 40.5904 69.4505 40.3257L69.467 40.2432L69.49 40.163L70.2043 37.6137H58.7798C57.9146 37.6126 57.0852 37.2684 56.4734 36.6566C55.8616 36.0448 55.5174 35.2154 55.5162 34.3502ZM92.6896 13H81.8508C81.8831 13.2636 81.8731 13.5307 81.8211 13.7912L81.8046 13.8725L81.7815 13.9527L81.0629 16.5162H92.6896C93.5548 16.5174 94.3842 16.8616 94.996 17.4734C95.6077 18.0852 95.952 18.9146 95.9531 19.7798V34.3502C95.952 35.2154 95.6077 36.0448 94.996 36.6566C94.3842 37.2684 93.5548 37.6126 92.6896 37.6137H77.3829L74.6996 41.13H92.6896C94.4871 41.128 96.2104 40.413 97.4814 39.142C98.7524 37.871 99.4673 36.1477 99.4694 34.3502V19.7798C99.4673 17.9823 98.7524 16.259 97.4814 14.988C96.2104 13.717 94.4871 13.002 92.6896 13Z" fill="#D4DCE3"/>
<path id="Vector_3" d="M68.1141 31.258C67.6266 31.2581 67.1483 31.1251 66.7308 30.8734C66.3133 30.6217 65.9725 30.2608 65.745 29.8296C65.5098 29.3872 65.3999 28.8889 65.4274 28.3887C65.4549 27.8884 65.6187 27.4052 65.9011 26.9913L65.9351 26.9407L65.9714 26.8924L71.9567 19.0435H60.0971C59.5142 19.0435 58.9552 19.275 58.5431 19.6871C58.131 20.0993 57.8994 20.6583 57.8994 21.2411V32.8887C57.8994 33.4715 58.131 34.0305 58.5431 34.4427C58.9552 34.8548 59.5142 35.0863 60.0971 35.0863H70.9117L71.9864 31.2558L68.1141 31.258Z" fill="#D4DCE3"/>
<path id="Vector_4" d="M80.577 29.8L83.5516 25.9002C83.5935 25.8366 83.6222 25.7652 83.6362 25.6903C83.6407 25.6664 83.6436 25.6422 83.645 25.6178C83.6482 25.5704 83.6452 25.5227 83.6362 25.4761C83.6234 25.4079 83.598 25.3427 83.5615 25.2838C83.5375 25.2454 83.5087 25.2103 83.4757 25.1794C83.4594 25.164 83.4418 25.15 83.423 25.1376C83.3857 25.1113 83.3446 25.0909 83.301 25.0772C83.2545 25.0624 83.2059 25.055 83.1571 25.0552H76.3861L77.7179 20.3072L78.0728 19.0435L78.7552 16.6085L78.8112 16.4064L79.6672 13.356C79.6706 13.336 79.6725 13.3158 79.6727 13.2956V13.278C79.6727 13.2725 79.6727 13.2494 79.6672 13.2362C79.6617 13.223 79.6672 13.2263 79.6672 13.2208C79.6628 13.2037 79.6565 13.1872 79.6485 13.1714C79.6399 13.1565 79.6304 13.1422 79.62 13.1285L79.6101 13.1176C79.6014 13.1086 79.5923 13.1001 79.5826 13.0923L79.5716 13.0835C79.558 13.0737 79.5437 13.0649 79.5288 13.0571C79.5143 13.0504 79.4992 13.0452 79.4837 13.0417H79.4189C79.4024 13.0401 79.3859 13.0401 79.3694 13.0417C79.3534 13.0454 79.338 13.0509 79.3233 13.0582L79.309 13.0659L79.276 13.089L79.2639 13.1C79.2491 13.1134 79.2358 13.1286 79.2244 13.145L77.2465 15.7416L75.8026 17.6337L74.7203 19.0435L67.7196 28.2242C67.7012 28.2522 67.685 28.2816 67.6713 28.3122C67.6537 28.3504 67.6408 28.3906 67.6328 28.4319C67.6234 28.4785 67.6204 28.5262 67.624 28.5737C67.6277 28.6538 67.6494 28.732 67.6874 28.8026C67.7255 28.8731 67.7789 28.9342 67.8438 28.9813C67.8628 28.994 67.8826 29.0054 67.9032 29.0154C67.9679 29.0467 68.0389 29.0629 68.1108 29.0627H74.8818L71.6051 40.7564C71.6035 40.7769 71.6035 40.7974 71.6051 40.8179V40.8344C71.6061 40.8485 71.6083 40.8624 71.6117 40.8762C71.6111 40.8813 71.6111 40.8864 71.6117 40.8915C71.6161 40.9087 71.6224 40.9252 71.6304 40.941C71.639 40.9555 71.6485 40.9694 71.6589 40.9827L71.6688 40.9937L71.6963 41.0201C71.7004 41.0224 71.7041 41.0254 71.7073 41.0289C71.7207 41.0388 71.735 41.0472 71.7501 41.0542C71.7648 41.0604 71.7798 41.0656 71.7952 41.0695H71.8095C71.8215 41.0706 71.8337 41.0706 71.8457 41.0695H71.86C71.8767 41.069 71.8933 41.0668 71.9095 41.063C71.9251 41.0587 71.9402 41.0528 71.9545 41.0454L71.9688 41.0377L72.0018 41.0146L72.0139 41.0047C72.0287 40.9912 72.042 40.9761 72.0534 40.9597L74.6159 37.6137L76.5421 35.0864L80.577 29.8Z" fill="#D4DCE3"/>
<path id="Vector_5" d="M85.3498 27.1671L85.2993 27.233L79.3074 35.0863H91.3725C91.9554 35.0863 92.5143 34.8548 92.9265 34.4427C93.3386 34.0305 93.5702 33.4715 93.5702 32.8887V21.2411C93.5702 20.6583 93.3386 20.0993 92.9265 19.6871C92.5143 19.275 91.9554 19.0435 91.3725 19.0435H80.3557L79.2854 22.8597H83.1577C83.6406 22.8591 84.1147 22.9892 84.5297 23.2363C84.9446 23.4833 85.285 23.8381 85.5147 24.2629C85.7534 24.7013 85.8692 25.1961 85.8499 25.695C85.8305 26.1938 85.6767 26.6781 85.4048 27.0968L85.3498 27.1671ZM102.986 21.2049C102.52 21.2049 102.073 21.3901 101.743 21.7198C101.413 22.0495 101.228 22.4967 101.228 22.963V31.1668C101.228 31.6331 101.413 32.0803 101.743 32.41C102.073 32.7397 102.52 32.9249 102.986 32.9249C103.452 32.9249 103.899 32.7397 104.229 32.41C104.559 32.0803 104.744 31.6331 104.744 31.1668V22.963C104.744 22.4967 104.559 22.0495 104.229 21.7198C103.899 21.3901 103.452 21.2049 102.986 21.2049Z" fill="#D4DCE3"/>
</g>
</g>
</g>
</svg>
