<svg width="193" height="65" viewBox="0 0 193 65" fill="none" xmlns="http://www.w3.org/2000/svg">
<g id="chart-block-pv.component">
<g id="pv-out">
<text id="pv-out-value" fill="#D4DCE3" xml:space="preserve" style="white-space: pre" font-family="Inter" font-size="18" font-weight="bold" letter-spacing="0em"><tspan x="74" y="53.5455">0 kW</tspan></text>
</g>
<g id="pv-box">
<text id="label" fill="#D4DCE3" xml:space="preserve" style="white-space: pre" font-family="Inter" font-size="12" font-weight="bold" letter-spacing="0em"><tspan x="74" y="30.6078">PV output</tspan></text>
<g id="icon">
<path id="Vector" d="M27.6691 31.3742L28.5325 27.7972C26.6679 26.9514 25.1914 24.3674 25.1914 22.1783C25.1914 18.7065 28.0068 15.891 31.4787 15.891C34.2268 15.891 36.5574 17.6581 37.4126 20.1151H39.8306C40.2237 19.4761 41.3493 18.6191 41.1612 18.1669C40.9235 17.5927 38.7923 18.0323 38.4503 17.521C38.1062 17.0072 39.3244 15.2049 38.8885 14.7691C38.4521 14.3328 36.6499 15.5515 36.136 15.2068C35.6255 14.8654 36.0644 12.7328 35.4908 12.4952C34.926 12.2613 33.7294 14.0761 33.1156 13.9548C32.5207 13.8372 32.1081 11.6997 31.4786 11.6997C30.8491 11.6997 30.4366 13.8372 29.8417 13.9548C29.2286 14.0761 28.0319 12.2613 27.4672 12.4958C26.893 12.7335 27.3326 14.8648 26.8213 15.2068C26.3075 15.5508 24.5052 14.3328 24.0694 14.7685C23.633 15.2049 24.8518 17.0072 24.5078 17.521C24.1658 18.0317 22.0338 17.5927 21.7955 18.1663C21.5616 18.731 23.3765 19.9283 23.2551 20.5415C23.1375 21.1364 21 21.5489 21 22.1783C21 22.8078 23.1375 23.2204 23.2552 23.8153C23.3765 24.4284 21.5616 25.6251 21.7962 26.1898C22.0339 26.764 24.1651 26.3244 24.5072 26.8357C24.8512 27.3495 23.6331 29.1518 24.0689 29.5876C24.5053 30.0239 26.3076 28.8052 26.8214 29.1492C27.1415 29.3637 27.6119 30.6604 27.6691 31.3742Z" fill="#D4DCE3"/>
<path id="Vector_2" d="M26.6843 40.5928H65.0002L60.4925 21.9182H31.192L26.6843 40.5928ZM61.7289 38.017H52.589L52.0494 32.2215H60.3295L61.7289 38.017ZM58.4644 24.494L59.8637 30.2896H51.8696L51.3307 24.494H58.4644ZM42.282 24.494H49.3906L49.9301 30.2896H41.7424L42.282 24.494ZM41.5625 32.2215H50.1099L50.6488 38.017H41.0236L41.5625 32.2215ZM33.2207 24.494H40.342L39.8031 30.2896H31.8215L33.2207 24.494ZM39.6232 32.2215L39.0836 38.017H29.9563L31.3556 32.2215H39.6232Z" fill="#D4DCE3"/>
<path id="Vector_3" d="M28.1874 44.4987H63.4972L65.0002 41.4934H26.6843L28.1874 44.4987Z" fill="#D4DCE3"/>
<path id="Vector_4" d="M47.7869 45.7183H43.898L43.6892 49.1217L39.7651 51.0661V53.4973H51.9198V51.0661L47.9956 49.1217L47.7869 45.7183Z" fill="#D4DCE3"/>
</g>
</g>
</g>
</svg>
