<svg width="140" height="140" viewBox="0 0 140 140" fill="none" xmlns="http://www.w3.org/2000/svg">
<g id="chart-block-grid.component">
<g id="grid-box">
<text id="label" fill="#D4DCE3" xml:space="preserve" style="white-space: pre" font-family="Inter" font-size="12" font-weight="bold" letter-spacing="0em"><tspan x="63" y="29.3636">Power&#10;</tspan><tspan x="63" y="41.3636">grid</tspan></text>
<path id="icon" d="M51.5681 54.7902H45.7784L40.7841 33.7968H49.3693C49.977 33.7968 50.4742 33.2996 50.4742 32.6918C50.4742 32.3272 50.2864 31.9846 49.977 31.7748L43.3475 27.3551C43.1707 27.2336 42.9498 27.1673 42.7398 27.1673H40.53V18.328H48.2754C48.8832 18.328 49.3804 17.8308 49.3804 17.223C49.3804 16.8584 49.1926 16.5049 48.8832 16.306L42.2537 11.8863C42.0769 11.7648 41.8559 11.6985 41.635 11.6985H38.9278L34.2872 4.47235C33.8783 3.84255 32.8287 3.84255 32.4309 4.47235L27.7571 11.6985H25.0501C24.8292 11.6985 24.6192 11.7648 24.4424 11.8863L17.8129 16.306C17.3046 16.6486 17.172 17.3336 17.5035 17.8419C17.7135 18.1513 18.0559 18.3391 18.4205 18.3391H26.155V27.1784H23.9452C23.7242 27.1784 23.5143 27.2447 23.3265 27.3662L16.697 31.7859C16.1887 32.1284 16.0561 32.8134 16.3876 33.3217C16.5975 33.6311 16.94 33.8189 17.3046 33.8189H25.8235L20.8293 54.8123H15.139C14.5866 54.8123 14.0894 55.21 14.012 55.7515C13.9126 56.4144 14.443 57 15.1059 57H51.535C52.0874 57 52.5846 56.6022 52.662 56.0608C52.7614 55.3758 52.2311 54.7902 51.5681 54.7902ZM42.6183 51.0003L34.7292 40.6472L38.8615 35.2331L42.6183 51.0003ZM36.5523 27.1673H30.0886L33.3259 24.2282L36.5523 27.1673ZM34.9722 22.7145L38.309 19.6981V25.753L34.9722 22.7145ZM36.2318 31.587H30.3647L32.1989 29.3772H34.464L36.2318 31.587ZM28.3649 25.731V19.7092L31.6796 22.7256L28.3649 25.731ZM37.171 33.7968L33.337 38.8463L29.4808 33.7968H37.171ZM42.3972 29.3772L45.712 31.587H39.0604L37.2925 29.3772H42.3972ZM41.2924 13.9083L44.6071 16.1181H38.7732L36.5634 13.9083H41.2924ZM33.337 7.11306L36.276 11.6985H30.3869L33.337 7.11306ZM35.6462 16.1182H31.0387L33.2485 13.9084H33.4363L35.6462 16.1182ZM36.5523 18.328L33.3259 21.245L30.1217 18.328H36.5523ZM22.0669 16.1182L25.3816 13.9084H30.1106L27.9008 16.1182H22.0669ZM20.9619 31.587L24.2767 29.3772H29.3262L27.492 31.587H20.9619ZM27.7682 35.1669L31.9448 40.6473L23.9673 51.1108L27.7682 35.1669ZM23.9673 54.7902L33.3369 42.4925L42.7065 54.7902H23.9673Z" fill="#D4DCE3"/>
</g>
<g id="grid-out">
<text id="grid-out-value" fill="#D4DCE3" xml:space="preserve" style="white-space: pre" font-family="Inter" font-size="18" font-weight="bold" letter-spacing="0em"><tspan x="44.9919" y="116.545">0 kW</tspan></text>
<path id="arrow" fill-rule="evenodd" clip-rule="evenodd" d="M33.8541 108.657C34.2664 109.047 34.2664 109.681 33.8541 110.071L27.1361 116.435C26.7238 116.826 26.0554 116.826 25.6432 116.435C25.2309 116.045 25.2309 115.411 25.6432 115.021L31.6148 109.364L25.6432 103.707C25.2309 103.317 25.2309 102.684 25.6432 102.293C26.0554 101.902 26.7238 101.902 27.1361 102.293L33.8541 108.657ZM20.8022 102.293L27.5203 108.657C27.9325 109.047 27.9325 109.681 27.5203 110.071L20.8022 116.435C20.3899 116.826 19.7215 116.826 19.3093 116.435C18.897 116.045 18.897 115.411 19.3093 115.021L25.2809 109.364L19.3093 103.707C18.897 103.317 18.897 102.684 19.3093 102.293C19.7215 101.902 20.3899 101.902 20.8022 102.293Z" fill="#D4DCE3"/>
</g>
<g id="grid-in">
<text id="grid-in-value" fill="#D4DCE3" xml:space="preserve" style="white-space: pre" font-family="Inter" font-size="18" font-weight="bold" letter-spacing="0em"><tspan x="44.9919" y="89.5455">0 kW</tspan></text>
<path id="arrow_2" fill-rule="evenodd" clip-rule="evenodd" d="M19.3092 84.7071C18.8969 84.3165 18.8969 83.6834 19.3092 83.2928L26.0273 76.9289C26.4395 76.5384 27.1079 76.5384 27.5202 76.9289C27.9324 77.3194 27.9324 77.9526 27.5202 78.3431L21.5486 83.9999L27.5202 89.6568C27.9324 90.0473 27.9324 90.6805 27.5202 91.071C27.1079 91.4615 26.4395 91.4615 26.0273 91.071L19.3092 84.7071ZM32.3611 91.071L25.6431 84.7071C25.2308 84.3165 25.2308 83.6834 25.6431 83.2928L32.3611 76.9289C32.7734 76.5384 33.4418 76.5384 33.854 76.9289C34.2663 77.3194 34.2663 77.9526 33.854 78.3431L27.8824 83.9999L33.854 89.6568C34.2663 90.0473 34.2663 90.6805 33.854 91.071C33.4418 91.4615 32.7734 91.4615 32.3611 91.071Z" fill="#D4DCE3"/>
</g>
</g>
</svg>
