<svg width="259" height="196" viewBox="0 0 259 196" fill="none" xmlns="http://www.w3.org/2000/svg">
<g id="flow-paths-no-pv.component">
<g id="flow-paths-appearance">
<path id="fp_batt-to-cons-appearance" d="M143.767 192.023C143.474 192.316 142.999 192.316 142.706 192.023L137.933 187.25C137.64 186.957 137.64 186.482 137.933 186.189C138.226 185.896 138.701 185.896 138.994 186.189L143.236 190.432L147.479 186.189C147.772 185.896 148.247 185.896 148.54 186.189C148.833 186.482 148.833 186.957 148.54 187.25L143.767 192.023ZM142.486 191.492V141.529H143.986V191.492H142.486ZM173.236 110.779H254.604V112.279H173.236V110.779ZM142.486 141.529C142.486 124.547 156.254 110.779 173.236 110.779V112.279C157.082 112.279 143.986 125.375 143.986 141.529H142.486Z" fill="#D4DCE3"/>
<path id="fp_grid-to-cons-appearance" d="M113.84 192.023C114.132 192.316 114.607 192.316 114.9 192.023L119.673 187.25C119.966 186.957 119.966 186.482 119.673 186.189C119.38 185.896 118.905 185.896 118.613 186.189L114.37 190.432L110.127 186.189C109.834 185.896 109.359 185.896 109.067 186.189C108.774 186.482 108.774 186.957 109.067 187.25L113.84 192.023ZM115.12 191.492V141.529H113.62V191.492H115.12ZM84.3699 110.779H2.99992V112.279H84.3699V110.779ZM115.12 141.529C115.12 124.547 101.353 110.779 84.3699 110.779V112.279C100.524 112.279 113.62 125.375 113.62 141.529H115.12Z" fill="#D4DCE3"/>
<path id="fp_grid-to-batt-appearance" d="M255.132 84.3453C255.425 84.0524 255.425 83.5775 255.132 83.2846L250.359 78.5116C250.066 78.2187 249.591 78.2187 249.299 78.5116C249.006 78.8045 249.006 79.2794 249.299 79.5723L253.541 83.8149L249.299 88.0576C249.006 88.3504 249.006 88.8253 249.299 89.1182C249.591 89.4111 250.066 89.4111 250.359 89.1182L255.132 84.3453ZM3 84.5646L254.602 84.5649L254.602 83.0649L3 83.0646L3 84.5646Z" fill="#D4DCE3"/>
<path id="fp_batt-to-grid-appearance" d="M2.46964 83.2842C2.17675 83.5771 2.17675 84.052 2.46964 84.3449L7.2426 89.1179C7.5355 89.4108 8.01037 89.4108 8.30326 89.1179C8.59616 88.825 8.59616 88.3501 8.30326 88.0572L4.06063 83.8146L8.30328 79.5719C8.59617 79.2791 8.59617 78.8042 8.30328 78.5113C8.01039 78.2184 7.53551 78.2184 7.24262 78.5113L2.46964 83.2842ZM254.602 83.0649L2.99997 83.0646L2.99997 84.5646L254.602 84.5649L254.602 83.0649Z" fill="#D4DCE3"/>
</g>
<g id="flow-paths">
<path id="fp_batt-to-cons" d="M253.644 111.529H173.261C156.692 111.529 143.26 124.961 143.26 141.529V183.584" stroke="black"/>
<path id="fp_grid-to-cons" d="M3.87881 111.529H84.2627C100.831 111.529 114.263 124.961 114.263 141.529V183.584" stroke="black"/>
<path id="fp_grid-to-batt" d="M3.65625 83.8149L247.602 83.8154" stroke="black"/>
<path id="fp_batt-to-grid" d="M253.602 83.8153L9.65625 83.8148" stroke="black"/>
</g>
</g>
</svg>
