<svg width="259" height="196" viewBox="0 0 259 196" fill="none" xmlns="http://www.w3.org/2000/svg">
<g id="flow-paths-full.component">
<g id="flow-paths-appearance">
<path id="fp_batt-to-cons-appearance" d="M143.767 192.023C143.474 192.316 142.999 192.316 142.706 192.023L137.933 187.25C137.64 186.957 137.64 186.482 137.933 186.189C138.226 185.896 138.701 185.896 138.994 186.189L143.236 190.432L147.479 186.189C147.772 185.896 148.247 185.896 148.54 186.189C148.833 186.482 148.833 186.957 148.54 187.25L143.767 192.023ZM142.486 191.492V141.529H143.986V191.492H142.486ZM173.236 110.779H254.604V112.279H173.236V110.779ZM142.486 141.529C142.486 124.547 156.254 110.779 173.236 110.779V112.279C157.082 112.279 143.986 125.375 143.986 141.529H142.486Z" fill="#D4DCE3"/>
<path id="fp_grid-to-cons-appearance" d="M113.84 192.023C114.132 192.316 114.607 192.316 114.9 192.023L119.673 187.25C119.966 186.957 119.966 186.482 119.673 186.189C119.38 185.896 118.905 185.896 118.613 186.189L114.37 190.432L110.127 186.189C109.834 185.896 109.359 185.896 109.067 186.189C108.774 186.482 108.774 186.957 109.067 187.25L113.84 192.023ZM115.12 191.492V141.529H113.62V191.492H115.12ZM84.3699 110.779H2.99992V112.279H84.3699V110.779ZM115.12 141.529C115.12 124.547 101.353 110.779 84.3699 110.779V112.279C100.524 112.279 113.62 125.375 113.62 141.529H115.12Z" fill="#D4DCE3"/>
<path id="fp_grid-to-batt-appearance" d="M255.132 98.3455C255.425 98.0526 255.425 97.5777 255.132 97.2848L250.359 92.5119C250.066 92.219 249.591 92.219 249.299 92.5119C249.006 92.8047 249.006 93.2796 249.299 93.5725L253.541 97.8152L249.299 102.058C249.006 102.351 249.006 102.826 249.299 103.118C249.591 103.411 250.066 103.411 250.359 103.118L255.132 98.3455ZM3 98.5648L254.602 98.5652L254.602 97.0652L3 97.0648L3 98.5648Z" fill="#D4DCE3"/>
<path id="fp_pv-to-batt-appearance" d="M255.135 84.5689C255.428 84.276 255.428 83.8011 255.135 83.5082L250.362 78.7353C250.069 78.4424 249.594 78.4424 249.301 78.7353C249.008 79.0282 249.008 79.503 249.301 79.7959L253.544 84.0386L249.301 88.2812C249.008 88.5741 249.008 89.049 249.301 89.3419C249.594 89.6348 250.069 89.6348 250.362 89.3419L255.135 84.5689ZM142.486 4V64.3569H143.986V4H142.486ZM160.33 84.7886H254.604V83.2886H160.33V84.7886ZM142.486 64.3569C142.486 75.5383 150.38 84.7886 160.33 84.7886V83.2886C151.4 83.2886 143.986 74.9153 143.986 64.3569H142.486Z" fill="#D4DCE3"/>
<path id="fp_pv-to-cons-appearance" d="M128.671 192.901C128.963 193.194 129.438 193.194 129.731 192.901L134.504 188.128C134.797 187.836 134.797 187.361 134.504 187.068C134.211 186.775 133.736 186.775 133.444 187.068L129.201 191.31L124.958 187.068C124.665 186.775 124.191 186.775 123.898 187.068C123.605 187.361 123.605 187.836 123.898 188.128L128.671 192.901ZM128.451 4.32617L128.451 192.371H129.951L129.951 4.32617L128.451 4.32617Z" fill="#D4DCE3"/>
<path id="fp_pv-to-grid-appearance" d="M2.46983 84.5689C2.17694 84.276 2.17694 83.8011 2.46983 83.5082L7.2428 78.7353C7.53569 78.4424 8.01057 78.4424 8.30346 78.7353C8.59635 79.0281 8.59635 79.503 8.30346 79.7959L4.06082 84.0386L8.30346 88.2812C8.59635 88.5741 8.59635 89.049 8.30346 89.3419C8.01057 89.6347 7.53569 89.6347 7.2428 89.3419L2.46983 84.5689ZM84.3701 84.0386L84.3701 83.2886L84.3701 84.0386ZM115.12 4V54.0386H113.62V4H115.12ZM84.3701 84.7886L3.00016 84.7886L3.00016 83.2886L84.3701 83.2886L84.3701 84.7886ZM115.12 54.0386C115.12 71.0213 101.353 84.7886 84.3701 84.7886L84.3701 83.2886C100.524 83.2886 113.62 70.1929 113.62 54.0386H115.12Z" fill="#D4DCE3"/>
<path id="fp_batt-to-grid-appearance" d="M2.46964 97.2842C2.17675 97.5771 2.17675 98.052 2.46964 98.3449L7.2426 103.118C7.5355 103.411 8.01037 103.411 8.30326 103.118C8.59616 102.825 8.59616 102.35 8.30326 102.057L4.06063 97.8146L8.30328 93.5719C8.59617 93.2791 8.59617 92.8042 8.30328 92.5113C8.01039 92.2184 7.53551 92.2184 7.24262 92.5113L2.46964 97.2842ZM254.602 97.0649L2.99997 97.0646L2.99997 98.5646L254.602 98.5649L254.602 97.0649Z" fill="#D4DCE3"/>
</g>
<g id="flow-paths">
<path id="fp_batt-to-cons" d="M253.644 111.529H173.261C156.692 111.529 143.26 124.961 143.26 141.529V183.584" stroke="black"/>
<path id="fp_grid-to-cons" d="M3.87881 111.529H84.2627C100.831 111.529 114.263 124.961 114.263 141.529V183.584" stroke="black"/>
<path id="fp_grid-to-batt" d="M3.65625 97.8153L247.602 97.8158" stroke="black"/>
<path id="fp_pv-to-batt" d="M143.26 4.32617V62.678C143.26 74.4682 150.745 84.0262 159.978 84.0262H247.493" stroke="black"/>
<path id="fp_pv-to-cons" d="M129.201 4.32617V183.584" stroke="black"/>
<path id="fp_pv-to-grid" d="M114.263 4.32617V54.0261C114.263 70.5947 100.831 84.0262 84.2627 84.0262L10.0298 84.0262" stroke="black"/>
<path id="fp_batt-to-grid" d="M247.602 97.8153L3.65625 97.8148" stroke="black"/>
</g>
</g>
</svg>
